# xmcd
#
# Track frame offsets: 
#        182
#        23810
#        47805
#        73430
#        90522
#        111795
#        130342
#        155662
#        175892
#        197782
#        217232
#        238020
#
# Disc length: 3476 seconds
#
# Revision: 6
# Processed by: cddbd v1.5.2PL0 Copyright (c) Steve Scherf et al.
# Submitted via: ExactAudioCopyFreeDBPlugin 1.0
#
DISCID=b40d920c
DTITLE=IV Xample - For Example
DYEAR=1995
DGENRE=R&B
TTITLE0=I'd Rather Be Alone
TTITLE1=I Can Make It Up To You
TTITLE2=From The Fool
TTITLE3=She's Always On My Mind
TTITLE4=Goin' Through The Motions
TTITLE5=So Low
TTITLE6=Getting Over You
TTITLE7=I Found A Love
TTITLE8=I Will Never Leave
TTITLE9=The Swang
TTITLE10=Slow Motion
TTITLE11=It's Alright
EXTD=
EXTT0=
EXTT1=
EXTT2=
EXTT3=
EXTT4=
EXTT5=
EXTT6=
EXTT7=
EXTT8=
EXTT9=
EXTT10=
EXTT11=
PLAYORDER=
